<?xml version="1.0" standalone="no"?>
<!DOCTYPE svg PUBLIC "-//W3C//DTD SVG 20010904//EN"
 "http://www.w3.org/TR/2001/REC-SVG-20010904/DTD/svg10.dtd">
<svg version="1.0" xmlns="http://www.w3.org/2000/svg"
 width="256.000000pt" height="256.000000pt" viewBox="0 0 256.000000 256.000000"
 preserveAspectRatio="xMidYMid meet">

<g transform="translate(0.000000,256.000000) scale(0.100000,-0.100000)"
fill="#000000" stroke="none">
<path d="M626 2223 c-22 -87 -41 -166 -44 -175 -4 -17 34 -18 698 -18 664 0
702 1 698 18 -3 9 -22 88 -44 175 l-38 157 -616 0 -616 0 -38 -157z"/>
<path d="M1905 1198 c-163 -84 -398 -168 -595 -212 -184 -41 -338 -57 -542
-58 l-188 -1 0 -200 0 -200 133 6 c441 21 888 191 1205 458 l62 53 0 93 c0 51
-3 93 -7 93 -5 -1 -35 -15 -68 -32z"/>
<path d="M583 248 c2 -7 22 -66 43 -130 l38 -118 616 0 616 0 38 118 c21 64
41 123 43 130 4 9 -139 12 -697 12 -558 0 -701 -3 -697 -12z"/>
</g>
</svg>
