<?xml version="1.0" standalone="no"?>
<!DOCTYPE svg PUBLIC "-//W3C//DTD SVG 20010904//EN"
 "http://www.w3.org/TR/2001/REC-SVG-20010904/DTD/svg10.dtd">
<svg version="1.0" xmlns="http://www.w3.org/2000/svg"
 width="32.000000pt" height="32.000000pt" viewBox="0 0 32.000000 32.000000"
 preserveAspectRatio="xMidYMid meet">

<g transform="translate(0.000000,32.000000) scale(0.100000,-0.100000)"
fill="#000000" stroke="none">
<path d="M150 275 c0 -16 35 -20 64 -9 29 11 16 24 -24 24 -29 0 -40 -4 -40
-15z"/>
<path d="M220 250 c-8 -5 -28 -10 -45 -11 -16 0 -39 -4 -49 -8 -18 -7 -16 -9
13 -24 17 -9 38 -14 46 -11 7 3 16 1 20 -5 7 -12 -15 -15 -82 -11 -46 2 -49
-1 -33 -31 12 -21 40 -25 58 -7 9 9 15 9 24 0 16 -16 43 -15 57 2 7 8 11 36 9
65 -2 42 -6 49 -18 41z m-95 -89 c3 -5 1 -12 -5 -16 -5 -3 -10 1 -10 9 0 18 6
21 15 7z m85 -12 c0 -5 -4 -9 -10 -9 -5 0 -10 7 -10 16 0 8 5 12 10 9 6 -3 10
-10 10 -16z"/>
<path d="M71 104 c0 -11 3 -14 6 -6 3 7 2 16 -1 19 -3 4 -6 -2 -5 -13z"/>
<path d="M227 103 c-14 -15 -22 -15 -50 -5 -51 18 -67 16 -67 -13 0 -20 6 -25
34 -30 19 -4 44 -4 56 0 15 5 20 4 16 -4 -4 -6 -5 -11 -2 -11 7 0 39 70 34 75
-2 3 -12 -3 -21 -12z"/>
<path d="M125 30 c3 -5 8 -10 11 -10 2 0 4 5 4 10 0 6 -5 10 -11 10 -5 0 -7
-4 -4 -10z"/>
<path d="M180 29 c0 -5 5 -7 10 -4 6 3 10 8 10 11 0 2 -4 4 -10 4 -5 0 -10 -5
-10 -11z"/>
</g>
</svg>
