<?xml version="1.0" standalone="no"?>
<!DOCTYPE svg PUBLIC "-//W3C//DTD SVG 20010904//EN"
 "http://www.w3.org/TR/2001/REC-SVG-20010904/DTD/svg10.dtd">
<svg version="1.0" xmlns="http://www.w3.org/2000/svg"
 width="256.000000pt" height="256.000000pt" viewBox="0 0 256.000000 256.000000"
 preserveAspectRatio="xMidYMid meet">
<metadata>
Created by potrace 1.14, written by Peter Selinger 2001-2017
</metadata>
<g transform="translate(0.000000,256.000000) scale(0.100000,-0.100000)"
fill="#000000" stroke="none">
<path d="M1050 2514 c-142 -24 -233 -60 -282 -114 -15 -17 -30 -41 -32 -53
-24 -126 -29 -139 -74 -199 l-47 -62 -1 -523 c0 -514 -1 -523 -21 -545 -33
-36 -63 -104 -63 -142 0 -46 14 -81 53 -130 18 -22 40 -57 49 -78 9 -21 21
-38 26 -38 17 0 44 -76 48 -132 6 -97 49 -151 161 -203 57 -26 60 -29 54 -54
-12 -43 -13 -138 -2 -160 35 -64 119 -15 179 105 l21 41 58 -4 c32 -2 81 -6
108 -8 28 -1 52 -3 56 -4 3 -1 6 -20 8 -43 6 -108 69 -168 127 -120 30 25 45
57 63 131 l16 65 55 16 c93 28 168 69 205 112 31 37 35 48 35 98 0 90 16 122
88 181 6 5 12 22 12 38 0 15 9 39 21 52 42 49 61 100 57 151 -4 33 -11 54 -24
63 -59 42 -54 -9 -54 567 l-1 527 -30 24 c-38 30 -57 86 -54 162 3 76 -22 124
-84 165 -58 39 -176 84 -276 106 -105 23 -341 27 -455 8z m615 -104 c3 -6 -1
-7 -9 -4 -18 7 -21 14 -7 14 6 0 13 -4 16 -10z"/>
</g>
</svg>
